<svg width="48" height="52" viewBox="0 0 48 52" fill="none" xmlns="http://www.w3.org/2000/svg">
<g filter="url(#filter0_f_2139_26059)">
<path d="M24.0001 17.8535C25.4755 19.0369 26.5405 20.6551 27.044 22.4783C27.5474 24.3014 27.4637 26.2368 26.8047 28.0097C26.1457 29.7826 24.945 31.3027 23.3729 32.3544C21.8009 33.4061 19.9375 33.9357 18.0473 33.8682C16.1571 33.8007 14.3363 33.1394 12.8433 31.9782C11.3503 30.817 10.2611 29.215 9.73032 27.3996C9.19953 25.5843 9.25416 23.6478 9.88645 21.8653C10.5187 20.0827 11.6965 18.5446 13.2526 17.4695M18.3751 33.875V42.875" stroke="white" stroke-width="2" stroke-linecap="round" stroke-linejoin="round"/>
</g>
<g filter="url(#filter1_f_2139_26059)">
<path d="M20.451 28.736C19.1013 27.5983 18.1159 26.0887 17.6176 24.3952C17.1192 22.7018 17.1299 20.8991 17.6483 19.2117C18.1667 17.5242 19.1699 16.0264 20.533 14.9048C21.8961 13.7832 23.559 13.0872 25.3147 12.9034C27.0704 12.7197 28.8414 13.0563 30.4072 13.8715C31.9731 14.6866 33.2646 15.9442 34.1211 17.4878C34.9776 19.0313 35.3613 20.7927 35.2244 22.5527C35.0874 24.3126 34.436 25.9935 33.351 27.386M32.6145 15.488L38.625 9.125M38.625 9.125H33M38.625 9.125V14.75M13.875 38.375H22.875" stroke="white" stroke-width="2" stroke-linecap="round" stroke-linejoin="round"/>
</g>
<path d="M24.0001 17.8535C25.4755 19.0369 26.5405 20.6551 27.044 22.4783C27.5474 24.3014 27.4637 26.2368 26.8047 28.0097C26.1457 29.7826 24.945 31.3027 23.3729 32.3544C21.8009 33.4061 19.9375 33.9357 18.0473 33.8682C16.1571 33.8007 14.3363 33.1394 12.8433 31.9782C11.3503 30.817 10.2611 29.215 9.73032 27.3996C9.19953 25.5843 9.25416 23.6478 9.88645 21.8653C10.5187 20.0827 11.6965 18.5446 13.2526 17.4695M18.3751 33.875V42.875" stroke="white" stroke-width="2" stroke-linecap="round" stroke-linejoin="round"/>
<path d="M20.451 28.736C19.1013 27.5983 18.1159 26.0887 17.6176 24.3952C17.1192 22.7018 17.1299 20.8991 17.6483 19.2117C18.1667 17.5242 19.1699 16.0264 20.533 14.9048C21.8961 13.7832 23.559 13.0872 25.3147 12.9034C27.0704 12.7197 28.8414 13.0563 30.4072 13.8715C31.9731 14.6866 33.2646 15.9442 34.1211 17.4878C34.9776 19.0313 35.3613 20.7927 35.2244 22.5527C35.0874 24.3126 34.436 25.9935 33.351 27.386M32.6145 15.488L38.625 9.125M38.625 9.125H33M38.625 9.125V14.75M13.875 38.375H22.875" stroke="white" stroke-width="2" stroke-linecap="round" stroke-linejoin="round"/>
<defs>
<filter id="filter0_f_2139_26059" x="0.368652" y="8.46936" width="36" height="43.4056" filterUnits="userSpaceOnUse" color-interpolation-filters="sRGB">
<feFlood flood-opacity="0" result="BackgroundImageFix"/>
<feBlend mode="normal" in="SourceGraphic" in2="BackgroundImageFix" result="shape"/>
<feGaussianBlur stdDeviation="4" result="effect1_foregroundBlur_2139_26059"/>
</filter>
<filter id="filter1_f_2139_26059" x="4.875" y="0.125" width="42.75" height="47.25" filterUnits="userSpaceOnUse" color-interpolation-filters="sRGB">
<feFlood flood-opacity="0" result="BackgroundImageFix"/>
<feBlend mode="normal" in="SourceGraphic" in2="BackgroundImageFix" result="shape"/>
<feGaussianBlur stdDeviation="4" result="effect1_foregroundBlur_2139_26059"/>
</filter>
</defs>
</svg>
